<svg width="25" height="27" viewBox="0 0 25 27" fill="none" xmlns="http://www.w3.org/2000/svg">
<path fill-rule="evenodd" clip-rule="evenodd" d="M19.7698 20.8811C20.2037 20.4472 20.9072 20.4472 21.3411 20.8811L24.6745 24.2144C25.1084 24.6483 25.1084 25.3519 24.6745 25.7858C24.2405 26.2197 23.537 26.2197 23.1031 25.7858L19.7698 22.4524C19.3359 22.0185 19.3359 21.315 19.7698 20.8811Z" fill="#807B67"/>
<path fill-rule="evenodd" clip-rule="evenodd" d="M12.5 22.7273C18.1484 22.7273 22.7273 18.1484 22.7273 12.5C22.7273 6.85163 18.1484 2.27273 12.5 2.27273C6.85163 2.27273 2.27273 6.85163 2.27273 12.5C2.27273 18.1484 6.85163 22.7273 12.5 22.7273ZM12.5 25C19.4036 25 25 19.4036 25 12.5C25 5.59644 19.4036 0 12.5 0C5.59644 0 0 5.59644 0 12.5C0 19.4036 5.59644 25 12.5 25Z" fill="#807B67"/>
</svg>
