<svg width="90" height="53" viewBox="0 0 90 53" fill="none" xmlns="http://www.w3.org/2000/svg">
<path d="M6.37969 14.6924L14.8571 25.1429H11.2075L3.13244 15.1056V25.1429H0V4.71436H3.13244V14.3382L11.2364 4.71436H14.8571L6.37969 14.6924Z" fill="#2B403A"/>
<path d="M19.5002 8.29288C18.3858 8.29288 17.6431 7.54755 17.6431 6.50348C17.6431 5.43002 18.3858 4.71436 19.5002 4.71436C20.5859 4.71436 21.3574 5.43 21.3574 6.50348C21.3574 7.54752 20.5859 8.29288 19.5002 8.29288ZM20.9573 10.47V25.1429H18.043V10.47H20.9573Z" fill="#2B403A"/>
<path d="M32.5001 12.9618H29.1207V25.143H25.9848V12.9618H23.2144V10.3817H25.9848V6.57153H29.1207V10.3817H32.5001V12.9618Z" fill="#2B403A"/>
<path d="M41.4279 25.1428C36.8049 25.1428 33.4287 22.0257 33.4287 17.7143C33.4287 13.4029 36.8049 10.2856 41.4279 10.2856C45.5037 10.2856 48.7581 12.9076 49.2144 16.4907H46.0511C45.6254 14.4225 43.7396 12.8784 41.4279 12.8784C38.6297 12.8784 36.6223 14.9176 36.6223 17.7143C36.6223 20.5401 38.6297 22.5503 41.4279 22.5503C43.7699 22.5503 45.6254 21.0354 46.0817 18.938H49.2144C48.7581 22.5503 45.5037 25.1428 41.4279 25.1428Z" fill="#2B403A"/>
<path d="M65 16.2275V25.1429H62.0374V16.6407C62.0374 14.3088 60.6571 12.7736 58.5289 12.7736C56.3429 12.7736 54.9337 14.3088 54.9337 16.6407V25.1429H52V4.71436H54.9337V12.803C55.8541 11.2385 57.4359 10.3527 59.3916 10.3527C62.6415 10.3527 65 12.7146 65 16.2275Z" fill="#2B403A"/>
<path d="M68.7144 16.6021C68.7144 12.8361 71.3433 10.2856 75.1856 10.2856C79.0567 10.2856 81.7144 12.8361 81.7144 16.6021V25.1428H78.7388V16.6021C78.7388 14.3189 77.3523 12.8063 75.2144 12.8063C73.0764 12.8063 71.6899 14.3189 71.6899 16.6021V25.1428H68.7144V16.6021Z" fill="#2B403A"/>
<path d="M41.4116 53C35.1722 53 30.6431 48.5182 30.6431 42.2914C30.6431 36.1249 35.1722 31.6428 41.4116 31.6428C46.9909 31.6428 51.1903 35.1624 52.0002 40.2759H48.6406C47.8907 36.9673 45.1311 34.651 41.4116 34.651C37.092 34.651 33.9725 37.8396 33.9725 42.2914C33.9725 46.7433 37.092 49.9921 41.4116 49.9921C45.101 49.9921 47.8907 47.6458 48.6406 44.3067H52.0002C51.2202 49.4507 46.9909 53 41.4116 53Z" fill="#2B403A"/>
<path d="M57.5714 32.5715V53.0001H54.7856V32.5715H57.5714Z" fill="#2B403A"/>
<path d="M63.1429 36.1501C62.0287 36.1501 61.2856 35.4047 61.2856 34.3607C61.2856 33.2872 62.0287 32.5715 63.1429 32.5715C64.2285 32.5715 64.9999 33.2872 64.9999 34.3607C64.9999 35.4047 64.2285 36.1501 63.1429 36.1501ZM64.6 38.3272V53.0001H61.6856V38.3272H64.6Z" fill="#2B403A"/>
<path d="M74.4427 45.4131L80.7858 53.0001H77.4048L71.5646 45.9447V53.0001H68.7144V32.5715H71.5646V44.9705L77.4048 38.4757H80.7858L74.4427 45.4131Z" fill="#2B403A"/>
<path d="M86.7014 5.52511V6.25828H86.1635V5.52022C86.1635 5.16854 85.9513 4.92576 85.6057 4.92576H84.6188V6.25825H84.0811V2.83057H85.6157C86.282 2.83057 86.7063 3.20716 86.7063 3.80161C86.7063 4.22753 86.4844 4.54454 86.1141 4.68328C86.4793 4.78218 86.7014 5.06965 86.7014 5.52511ZM86.1537 3.89566C86.1537 3.53395 85.9267 3.31122 85.5615 3.31122H84.6188V4.49009H85.5615C85.9267 4.49009 86.1537 4.25712 86.1537 3.89566Z" fill="#2B403A"/>
<path d="M85.3937 8.0888C87.344 8.0888 88.9251 6.50192 88.9251 4.5444C88.9251 2.58688 87.344 1 85.3937 1C83.4434 1 81.8623 2.58688 81.8623 4.5444C81.8623 6.50192 83.4434 8.0888 85.3937 8.0888Z" stroke="#2B403A" stroke-width="0.5" stroke-miterlimit="10"/>
<path d="M74.2856 51.1428L77.1212 51.6127L77.9999 53H75.6125L74.2856 51.1428Z" fill="#2B403A"/>
<path d="M73.0006 51.1428L71.5 53H73.3571L73.0006 51.1428Z" fill="#2B403A"/>
</svg>
